<svg xmlns="http://www.w3.org/2000/svg" viewBox="0 0 128 128">
  <path fill="#FFD983" d="M64 0C28.7 0 0 28.7 0 64s28.7 64 64 64 64-28.7 64-64S99.3 0 64 0z"/>
  <path fill="#664500" d="M40.2 40.2c-3.3 0-6 2.7-6 6s2.7 6 6 6 6-2.7 6-6-2.7-6-6-6zm47.6 0c-3.3 0-6 2.7-6 6s2.7 6 6 6 6-2.7 6-6-2.7-6-6-6z"/>
  <path fill="#664500" d="M88.4 72.2c-1.2-.4-2.5.2-2.9 1.4-4.4 12.2-16.1 20.2-29.5 20.2s-25-8-29.5-20.2c-.4-1.2-1.7-1.8-2.9-1.4-1.2.4-1.8 1.7-1.4 2.9 5.2 14.2 18.8 24.2 33.8 24.2s28.6-10 33.8-24.2c.4-1.2-.2-2.5-1.4-2.9z"/>
</svg>
